<svg xmlns="http://www.w3.org/2000/svg" viewBox="0 0 64 64" width="512" height="512">
  <defs>
    <linearGradient id="g" x1="10%" y1="0%" x2="90%" y2="100%">
      <stop offset="0%"   stop-color="#8a52ff"/>
      <stop offset="55%"  stop-color="#d04df0"/>
      <stop offset="100%" stop-color="#ff5a8f"/>
    </linearGradient>
  </defs>
  <!-- Спич-бабл с хвостиком слева-снизу. -->
  <path
    d="M16 6 H48 C53.5 6 58 10.5 58 16 V40 C58 45.5 53.5 50 48 50 H26
       L13 60 C12 60.6 10.8 59.7 11 58.5 L13 50 H16
       C10.5 50 6 45.5 6 40 V16 C6 10.5 10.5 6 16 6 Z"
    fill="url(#g)"/>
  <!-- Sound-wave / голос: 4 белых пилюли разной высоты. -->
  <g fill="white">
    <rect x="20" y="22" width="3.5" height="12" rx="1.75"/>
    <rect x="27" y="17" width="3.5" height="22" rx="1.75"/>
    <rect x="34" y="20" width="3.5" height="16" rx="1.75"/>
    <rect x="41" y="24" width="3.5" height="8"  rx="1.75"/>
  </g>
</svg>
